Coordinates
version=1
nRows=17
nColumns=40
inDegrees=yes

Units are S.I. units (second, meters, Newtons, ...)
If the header above contains a line with 'inDegrees', this indicates whether rotational values are in degrees (yes) or radians (no).

endheader
time	pelvis_tilt	pelvis_list	pelvis_rotation	pelvis_tx	pelvis_ty	pelvis_tz	hip_flexion_r	hip_adduction_r	hip_rotation_r	knee_angle_r	knee_angle_r_beta	ankle_angle_r	subtalar_angle_r	mtp_angle_r	hip_flexion_l	hip_adduction_l	hip_rotation_l	knee_angle_l	knee_angle_l_beta	ankle_angle_l	subtalar_angle_l	mtp_angle_l	lumbar_extension	lumbar_bending	lumbar_rotation	arm_flex_r	arm_add_r	arm_rot_r	elbow_flex_r	pro_sup_r	wrist_flex_r	wrist_dev_r	arm_flex_l	arm_add_l	arm_rot_l	elbow_flex_l	pro_sup_l	wrist_flex_l	wrist_dev_l
      3.40000000	     -2.04733327	      6.62049343	     -1.31197258	     -0.44018329	      0.75238194	     -0.78867830	     53.05899742	     -4.40879248	     -7.42833115	     83.28231347	      1.45355058	     25.90846015	      0.00000000	      0.00000000	     61.13235913	     -6.31844765	    -12.23549145	     21.22940624	      0.37052304	    -26.91754297	      0.00000000	      0.00000000	    -24.57580258	    -26.95294612	    -18.12969968	     79.09026389	    -11.11180834	     13.83952820	     53.45702763	     87.56979874	      0.00000000	      0.00000000	     89.96472440	     11.22522884	     26.36033485	     39.06143614	     37.99417644	      0.00000000	      0.00000000
      3.40500000	     -1.97545844	      6.69292537	     -1.36221314	     -0.43992763	      0.75314333	     -0.78874653	     52.91033206	     -4.44346527	     -7.34218517	     83.16633584	      1.45152639	     25.86700689	      0.00000000	      0.00000000	     60.96198198	     -6.28374463	    -12.33072772	     21.15408650	      0.36920846	    -26.94387060	      0.00000000	      0.00000000	    -24.59683634	    -27.05692143	    -18.13741232	     79.08280706	    -11.11559520	     13.79704047	     53.49574515	     87.54751684	      0.00000000	      0.00000000	     89.96466445	     11.27210718	     26.28503394	     39.07731880	     37.78560017	      0.00000000	      0.00000000
      3.41000000	     -2.00633733	      6.64934107	     -1.37069903	     -0.43980529	      0.75366816	     -0.78877534	     52.86111520	     -4.38015908	     -7.34409684	     83.03664545	      1.44926286	     25.84091757	      0.00000000	      0.00000000	     60.97301246	     -6.32038838	    -12.32878280	     21.17427656	      0.36956084	    -26.93948401	      0.00000000	      0.00000000	    -24.47578009	    -27.00580348	    -18.05750995	     79.10328763	    -11.18240741	     13.84092061	     53.50722552	     87.58090527	      0.00000000	      0.00000000	     89.96468382	     11.28397130	     26.25898195	     39.08711272	     37.88826991	      0.00000000	      0.00000000
      3.41500000	     -1.98063890	      6.62238540	     -1.38605870	     -0.43964732	      0.75427380	     -0.78877593	     52.75851337	     -4.33149827	     -7.33368787	     82.91818931	      1.44719541	     25.78244292	      0.00000000	      0.00000000	     60.91233685	     -6.33538486	    -12.28285394	     21.15783461	      0.36927388	    -27.01060706	      0.00000000	      0.00000000	    -24.45847926	    -27.00018928	    -18.07306561	     79.13010789	    -11.19985163	     13.83663764	     53.55967407	     87.56182355	      0.00000000	      0.00000000	     89.96464795	     11.32270333	     26.21489141	     39.11989120	     37.93364004	      0.00000000	      0.00000000
      3.42000000	     -1.95449316	      6.55898901	     -1.36439906	     -0.43943647	      0.75494974	     -0.78881239	     52.62575202	     -4.29881847	     -7.38698762	     82.78411651	      1.44485540	     25.75112048	      0.00000000	      0.00000000	     60.85422595	     -6.34700028	    -12.22118879	     21.15938534	      0.36930094	    -27.04946530	      0.00000000	      0.00000000	    -24.41611224	    -26.93992172	    -18.05598558	     79.12996741	    -11.21478082	     13.79660956	     53.57473745	     87.54200619	      0.00000000	      0.00000000	     89.96463423	     11.30329811	     26.35496462	     39.16149039	     38.08025123	      0.00000000	      0.00000000
      3.42500000	     -1.92597489	      6.55106495	     -1.38456823	     -0.43923812	      0.75561207	     -0.78878484	     52.50865008	     -4.26446851	     -7.38107446	     82.64887434	      1.44249498	     25.70905006	      0.00000000	      0.00000000	     60.79214049	     -6.36068846	    -12.24756146	     21.18773167	      0.36979568	    -26.98209888	      0.00000000	      0.00000000	    -24.36602867	    -26.94757845	    -18.02265338	     79.13574849	    -11.26450812	     13.83086925	     53.58609728	     87.58123748	      0.00000000	      0.00000000	     89.96468494	     11.33730367	     26.24074042	     39.12192825	     38.03289370	      0.00000000	      0.00000000
      3.43000000	     -1.92054748	      6.60731012	     -1.40632628	     -0.43905198	      0.75633360	     -0.78882982	     52.42539681	     -4.28511661	     -7.31073823	     82.51681764	      1.44019016	     25.65558887	      0.00000000	      0.00000000	     60.69884920	     -6.31765488	    -12.25998720	     21.10519508	      0.36835514	    -27.01964931	      0.00000000	      0.00000000	    -24.33202959	    -27.03575835	    -18.06143875	     79.14211051	    -11.25458665	     13.77153233	     53.61146397	     87.57235430	      0.00000000	      0.00000000	     89.96469882	     11.33189283	     26.25453978	     39.19412311	     38.07233431	      0.00000000	      0.00000000
      3.43500000	     -1.95777520	      6.50887743	     -1.33788928	     -0.43898044	      0.75684764	     -0.78884891	     52.37218747	     -4.22719779	     -7.39884580	     82.38799263	      1.43794174	     25.62697088	      0.00000000	      0.00000000	     60.73706394	     -6.31259617	    -12.14112682	     21.11537495	      0.36853282	    -27.03133112	      0.00000000	      0.00000000	    -24.25371178	    -26.94871501	    -18.11779556	     79.16600771	    -11.29156767	     13.82841908	     53.60378144	     87.55750657	      0.00000000	      0.00000000	     89.96475010	     11.36040296	     26.17552033	     39.18841805	     38.11826814	      0.00000000	      0.00000000
      3.44000000	     -1.93259459	      6.47990333	     -1.30255954	     -0.43881351	      0.75769508	     -0.78890971	     52.21453447	     -4.19893659	     -7.39974642	     82.18129003	      1.43433409	     25.58326292	      0.00000000	      0.00000000	     60.61550065	     -6.26259398	    -12.04006041	     20.95644867	      0.36575903	    -27.30278916	      0.00000000	      0.00000000	    -24.25202769	    -26.87283079	    -18.16812579	     79.19538171	    -11.33961183	     14.02938472	     53.71678829	     87.27913500	      0.00000000	      0.00000000	     89.96467822	     11.23015260	     26.32435283	     39.43623427	     37.96455391	      0.00000000	      0.00000000
      3.44500000	     -1.87490690	      6.47611862	     -1.35434263	     -0.43856730	      0.75838795	     -0.78886683	     52.07672246	     -4.15540438	     -7.37664895	     82.08515820	      1.43265628	     25.52999379	      0.00000000	      0.00000000	     60.57169015	     -6.31286062	    -12.10512332	     21.13561730	      0.36888611	    -26.96525396	      0.00000000	      0.00000000	    -24.21247530	    -26.92983983	    -18.08813598	     79.19185769	    -11.36464789	     13.86261830	     53.68278626	     87.57807669	      0.00000000	      0.00000000	     89.96474527	     11.37005822	     26.15650760	     39.29407522	     38.02036517	      0.00000000	      0.00000000
      3.45000000	     -1.90370250	      6.47668629	     -1.33483730	     -0.43839882	      0.75907281	     -0.78887948	     52.02028224	     -4.14789282	     -7.35796457	     81.94551215	      1.43021899	     25.43969844	      0.00000000	      0.00000000	     60.55241184	     -6.28322528	    -12.07955326	     21.10293993	      0.36831578	    -27.03533051	      0.00000000	      0.00000000	    -24.15214095	    -26.96961681	    -18.18174444	     79.20240699	    -11.34728253	     13.84789248	     53.66390067	     87.53079557	      0.00000000	      0.00000000	     89.96479601	     11.34602357	     26.15904273	     39.32556136	     37.77361562	      0.00000000	      0.00000000
      3.45500000	     -1.91584233	      6.42493231	     -1.33534940	     -0.43819813	      0.75974352	     -0.78892550	     51.93491245	     -4.10137645	     -7.38709360	     81.79895378	      1.42766107	     25.34738876	      0.00000000	      0.00000000	     60.54251742	     -6.30841753	    -12.05008696	     21.13659391	      0.36890316	    -26.99363835	      0.00000000	      0.00000000	    -24.01608175	    -26.89571266	    -18.07780367	     79.19218344	    -11.37930901	     13.81554608	     53.67414277	     87.51928141	      0.00000000	      0.00000000	     89.96481481	     11.30506233	     26.41125818	     39.36591629	     37.90799147	      0.00000000	      0.00000000
      3.46000000	     -1.90157427	      6.40129637	     -1.32614570	     -0.43800930	      0.76050207	     -0.78894563	     51.81488330	     -4.08795042	     -7.41973592	     81.63254580	      1.42475670	     25.32954744	      0.00000000	      0.00000000	     60.50615391	     -6.30591481	    -12.08043945	     21.17412069	      0.36955812	    -26.94684451	      0.00000000	      0.00000000	    -24.00225113	    -26.89663216	    -18.13535225	     79.21454780	    -11.40980250	     13.88188199	     53.71162982	     87.53971268	      0.00000000	      0.00000000	     89.96477476	     11.36126328	     26.12207686	     39.40365224	     37.68516586	      0.00000000	      0.00000000
      3.46500000	     -1.87878084	      6.35393075	     -1.31777854	     -0.43776760	      0.76131847	     -0.78894350	     51.66943407	     -4.03798492	     -7.44037047	     81.46930666	      1.42190764	     25.27154205	      0.00000000	      0.00000000	     60.45893969	     -6.32711371	    -12.13013749	     21.21142533	      0.37020921	    -26.88340048	      0.00000000	      0.00000000	    -23.94325891	    -26.85653354	    -18.10315184	     79.21260619	    -11.43731793	     13.86147581	     53.71644879	     87.54925867	      0.00000000	      0.00000000	     89.96477266	     11.37036076	     26.18072999	     39.38189732	     37.82064500	      0.00000000	      0.00000000
      3.47000000	     -1.84607137	      6.36360938	     -1.34434588	     -0.43749289	      0.76219773	     -0.78894857	     51.52806915	     -4.02654281	     -7.41954967	     81.30647882	      1.41906576	     25.20959400	      0.00000000	      0.00000000	     60.36579515	     -6.32425753	    -12.17040182	     21.20759860	      0.37014242	    -26.83591041	      0.00000000	      0.00000000	    -23.90524817	    -26.88018176	    -18.09871573	     79.21631346	    -11.45613458	     13.88538254	     53.74927012	     87.54881252	      0.00000000	      0.00000000	     89.96476771	     11.35569097	     26.14032557	     39.42995293	     37.53798686	      0.00000000	      0.00000000
      3.47500000	     -1.77268688	      6.38398868	     -1.34675709	     -0.43724558	      0.76315856	     -0.78897708	     51.33681678	     -4.04074258	     -7.39902159	     81.13947973	      1.41615107	     25.14927802	      0.00000000	      0.00000000	     60.24116483	     -6.29291667	    -12.24959911	     21.21390440	      0.37025248	    -26.84036495	      0.00000000	      0.00000000	    -23.95167365	    -26.93929714	    -18.17425588	     79.22988616	    -11.44809990	     13.84961499	     53.76838329	     87.57058398	      0.00000000	      0.00000000	     89.96479222	     11.35999882	     26.13350652	     39.46225149	     37.34673660	      0.00000000	      0.00000000
      3.48000000	     -1.80659672	      6.30956176	     -1.32843741	     -0.43705175	      0.76387475	     -0.78905019	     51.25898899	     -4.00046108	     -7.46568918	     80.96048514	      1.41302703	     25.05212863	      0.00000000	      0.00000000	     60.25823377	     -6.30659032	    -12.20480149	     21.21634042	      0.37029500	    -26.88388543	      0.00000000	      0.00000000	    -23.80716311	    -26.80532397	    -18.09738993	     79.25491229	    -11.50325845	     13.96761525	     53.79325533	     87.54657556	      0.00000000	      0.00000000	     89.96475135	     11.32051465	     26.12492120	     39.51856558	     37.16623843	      0.00000000	      0.00000000
